<svg xmlns="http://www.w3.org/2000/svg" viewBox="-0.5 -0.5 34 34"><path fill="#1B1B1B" d="M9.5,0.08a.42,.42 0 1 1 0,.84a.42,.42 0 1 1 0-.84zM11.5,0.08a.42,.42 0 1 1 0,.84a.42,.42 0 1 1 0-.84zM12.5,0.08a.42,.42 0 1 1 0,.84a.42,.42 0 1 1 0-.84zM13.5,0.08a.42,.42 0 1 1 0,.84a.42,.42 0 1 1 0-.84zM15.5,0.08a.42,.42 0 1 1 0,.84a.42,.42 0 1 1 0-.84zM17.5,0.08a.42,.42 0 1 1 0,.84a.42,.42 0 1 1 0-.84zM18.5,0.08a.42,.42 0 1 1 0,.84a.42,.42 0 1 1 0-.84zM19.5,0.08a.42,.42 0 1 1 0,.84a.42,.42 0 1 1 0-.84zM20.5,0.08a.42,.42 0 1 1 0,.84a.42,.42 0 1 1 0-.84zM22.5,0.08a.42,.42 0 1 1 0,.84a.42,.42 0 1 1 0-.84zM24.5,0.08a.42,.42 0 1 1 0,.84a.42,.42 0 1 1 0-.84zM9.5,1.08a.42,.42 0 1 1 0,.84a.42,.42 0 1 1 0-.84zM13.5,1.08a.42,.42 0 1 1 0,.84a.42,.42 0 1 1 0-.84zM19.5,1.08a.42,.42 0 1 1 0,.84a.42,.42 0 1 1 0-.84zM20.5,1.08a.42,.42 0 1 1 0,.84a.42,.42 0 1 1 0-.84zM21.5,1.08a.42,.42 0 1 1 0,.84a.42,.42 0 1 1 0-.84zM22.5,1.08a.42,.42 0 1 1 0,.84a.42,.42 0 1 1 0-.84zM24.5,1.08a.42,.42 0 1 1 0,.84a.42,.42 0 1 1 0-.84zM8.5,2.08a.42,.42 0 1 1 0,.84a.42,.42 0 1 1 0-.84zM9.5,2.08a.42,.42 0 1 1 0,.84a.42,.42 0 1 1 0-.84zM10.5,2.08a.42,.42 0 1 1 0,.84a.42,.42 0 1 1 0-.84zM15.5,2.08a.42,.42 0 1 1 0,.84a.42,.42 0 1 1 0-.84zM16.5,2.08a.42,.42 0 1 1 0,.84a.42,.42 0 1 1 0-.84zM18.5,2.08a.42,.42 0 1 1 0,.84a.42,.42 0 1 1 0-.84zM19.5,2.08a.42,.42 0 1 1 0,.84a.42,.42 0 1 1 0-.84zM20.5,2.08a.42,.42 0 1 1 0,.84a.42,.42 0 1 1 0-.84zM21.5,2.08a.42,.42 0 1 1 0,.84a.42,.42 0 1 1 0-.84zM23.5,2.08a.42,.42 0 1 1 0,.84a.42,.42 0 1 1 0-.84zM24.5,2.08a.42,.42 0 1 1 0,.84a.42,.42 0 1 1 0-.84zM8.5,3.08a.42,.42 0 1 1 0,.84a.42,.42 0 1 1 0-.84zM9.5,3.08a.42,.42 0 1 1 0,.84a.42,.42 0 1 1 0-.84zM10.5,3.08a.42,.42 0 1 1 0,.84a.42,.42 0 1 1 0-.84zM12.5,3.08a.42,.42 0 1 1 0,.84a.42,.42 0 1 1 0-.84zM17.5,3.08a.42,.42 0 1 1 0,.84a.42,.42 0 1 1 0-.84zM21.5,3.08a.42,.42 0 1 1 0,.84a.42,.42 0 1 1 0-.84zM23.5,3.08a.42,.42 0 1 1 0,.84a.42,.42 0 1 1 0-.84zM10.5,4.08a.42,.42 0 1 1 0,.84a.42,.42 0 1 1 0-.84zM12.5,4.08a.42,.42 0 1 1 0,.84a.42,.42 0 1 1 0-.84zM13.5,4.08a.42,.42 0 1 1 0,.84a.42,.42 0 1 1 0-.84zM14.5,4.08a.42,.42 0 1 1 0,.84a.42,.42 0 1 1 0-.84zM16.5,4.08a.42,.42 0 1 1 0,.84a.42,.42 0 1 1 0-.84zM19.5,4.08a.42,.42 0 1 1 0,.84a.42,.42 0 1 1 0-.84zM21.5,4.08a.42,.42 0 1 1 0,.84a.42,.42 0 1 1 0-.84zM23.5,4.08a.42,.42 0 1 1 0,.84a.42,.42 0 1 1 0-.84zM24.5,4.08a.42,.42 0 1 1 0,.84a.42,.42 0 1 1 0-.84zM14.5,5.08a.42,.42 0 1 1 0,.84a.42,.42 0 1 1 0-.84zM16.5,5.08a.42,.42 0 1 1 0,.84a.42,.42 0 1 1 0-.84zM17.5,5.08a.42,.42 0 1 1 0,.84a.42,.42 0 1 1 0-.84zM18.5,5.08a.42,.42 0 1 1 0,.84a.42,.42 0 1 1 0-.84zM20.5,5.08a.42,.42 0 1 1 0,.84a.42,.42 0 1 1 0-.84zM21.5,5.08a.42,.42 0 1 1 0,.84a.42,.42 0 1 1 0-.84zM22.5,5.08a.42,.42 0 1 1 0,.84a.42,.42 0 1 1 0-.84zM23.5,5.08a.42,.42 0 1 1 0,.84a.42,.42 0 1 1 0-.84zM8.5,6.08a.42,.42 0 1 1 0,.84a.42,.42 0 1 1 0-.84zM10.5,6.08a.42,.42 0 1 1 0,.84a.42,.42 0 1 1 0-.84zM12.5,6.08a.42,.42 0 1 1 0,.84a.42,.42 0 1 1 0-.84zM14.5,6.08a.42,.42 0 1 1 0,.84a.42,.42 0 1 1 0-.84zM16.5,6.08a.42,.42 0 1 1 0,.84a.42,.42 0 1 1 0-.84zM18.5,6.08a.42,.42 0 1 1 0,.84a.42,.42 0 1 1 0-.84zM20.5,6.08a.42,.42 0 1 1 0,.84a.42,.42 0 1 1 0-.84zM22.5,6.08a.42,.42 0 1 1 0,.84a.42,.42 0 1 1 0-.84zM24.5,6.08a.42,.42 0 1 1 0,.84a.42,.42 0 1 1 0-.84zM9.5,7.08a.42,.42 0 1 1 0,.84a.42,.42 0 1 1 0-.84zM10.5,7.08a.42,.42 0 1 1 0,.84a.42,.42 0 1 1 0-.84zM12.5,7.08a.42,.42 0 1 1 0,.84a.42,.42 0 1 1 0-.84zM13.5,7.08a.42,.42 0 1 1 0,.84a.42,.42 0 1 1 0-.84zM18.5,7.08a.42,.42 0 1 1 0,.84a.42,.42 0 1 1 0-.84zM20.5,7.08a.42,.42 0 1 1 0,.84a.42,.42 0 1 1 0-.84zM22.5,7.08a.42,.42 0 1 1 0,.84a.42,.42 0 1 1 0-.84zM24.5,7.08a.42,.42 0 1 1 0,.84a.42,.42 0 1 1 0-.84zM3.5,8.08a.42,.42 0 1 1 0,.84a.42,.42 0 1 1 0-.84zM4.5,8.08a.42,.42 0 1 1 0,.84a.42,.42 0 1 1 0-.84zM6.5,8.08a.42,.42 0 1 1 0,.84a.42,.42 0 1 1 0-.84zM7.5,8.08a.42,.42 0 1 1 0,.84a.42,.42 0 1 1 0-.84zM9.5,8.08a.42,.42 0 1 1 0,.84a.42,.42 0 1 1 0-.84zM14.5,8.08a.42,.42 0 1 1 0,.84a.42,.42 0 1 1 0-.84zM16.5,8.08a.42,.42 0 1 1 0,.84a.42,.42 0 1 1 0-.84zM18.5,8.08a.42,.42 0 1 1 0,.84a.42,.42 0 1 1 0-.84zM19.5,8.08a.42,.42 0 1 1 0,.84a.42,.42 0 1 1 0-.84zM21.5,8.08a.42,.42 0 1 1 0,.84a.42,.42 0 1 1 0-.84zM24.5,8.08a.42,.42 0 1 1 0,.84a.42,.42 0 1 1 0-.84zM29.5,8.08a.42,.42 0 1 1 0,.84a.42,.42 0 1 1 0-.84zM30.5,8.08a.42,.42 0 1 1 0,.84a.42,.42 0 1 1 0-.84zM1.5,9.08a.42,.42 0 1 1 0,.84a.42,.42 0 1 1 0-.84zM2.5,9.08a.42,.42 0 1 1 0,.84a.42,.42 0 1 1 0-.84zM5.5,9.08a.42,.42 0 1 1 0,.84a.42,.42 0 1 1 0-.84zM8.5,9.08a.42,.42 0 1 1 0,.84a.42,.42 0 1 1 0-.84zM10.5,9.08a.42,.42 0 1 1 0,.84a.42,.42 0 1 1 0-.84zM11.5,9.08a.42,.42 0 1 1 0,.84a.42,.42 0 1 1 0-.84zM13.5,9.08a.42,.42 0 1 1 0,.84a.42,.42 0 1 1 0-.84zM19.5,9.08a.42,.42 0 1 1 0,.84a.42,.42 0 1 1 0-.84zM21.5,9.08a.42,.42 0 1 1 0,.84a.42,.42 0 1 1 0-.84zM22.5,9.08a.42,.42 0 1 1 0,.84a.42,.42 0 1 1 0-.84zM25.5,9.08a.42,.42 0 1 1 0,.84a.42,.42 0 1 1 0-.84zM27.5,9.08a.42,.42 0 1 1 0,.84a.42,.42 0 1 1 0-.84zM28.5,9.08a.42,.42 0 1 1 0,.84a.42,.42 0 1 1 0-.84zM29.5,9.08a.42,.42 0 1 1 0,.84a.42,.42 0 1 1 0-.84zM31.5,9.08a.42,.42 0 1 1 0,.84a.42,.42 0 1 1 0-.84zM0.5,10.08a.42,.42 0 1 1 0,.84a.42,.42 0 1 1 0-.84zM1.5,10.08a.42,.42 0 1 1 0,.84a.42,.42 0 1 1 0-.84zM2.5,10.08a.42,.42 0 1 1 0,.84a.42,.42 0 1 1 0-.84zM6.5,10.08a.42,.42 0 1 1 0,.84a.42,.42 0 1 1 0-.84zM7.5,10.08a.42,.42 0 1 1 0,.84a.42,.42 0 1 1 0-.84zM11.5,10.08a.42,.42 0 1 1 0,.84a.42,.42 0 1 1 0-.84zM14.5,10.08a.42,.42 0 1 1 0,.84a.42,.42 0 1 1 0-.84zM18.5,10.08a.42,.42 0 1 1 0,.84a.42,.42 0 1 1 0-.84zM22.5,10.08a.42,.42 0 1 1 0,.84a.42,.42 0 1 1 0-.84zM23.5,10.08a.42,.42 0 1 1 0,.84a.42,.42 0 1 1 0-.84zM27.5,10.08a.42,.42 0 1 1 0,.84a.42,.42 0 1 1 0-.84zM29.5,10.08a.42,.42 0 1 1 0,.84a.42,.42 0 1 1 0-.84zM31.5,10.08a.42,.42 0 1 1 0,.84a.42,.42 0 1 1 0-.84zM32.5,10.08a.42,.42 0 1 1 0,.84a.42,.42 0 1 1 0-.84zM4.5,11.08a.42,.42 0 1 1 0,.84a.42,.42 0 1 1 0-.84zM8.5,11.08a.42,.42 0 1 1 0,.84a.42,.42 0 1 1 0-.84zM11.5,11.08a.42,.42 0 1 1 0,.84a.42,.42 0 1 1 0-.84zM12.5,11.08a.42,.42 0 1 1 0,.84a.42,.42 0 1 1 0-.84zM15.5,11.08a.42,.42 0 1 1 0,.84a.42,.42 0 1 1 0-.84zM17.5,11.08a.42,.42 0 1 1 0,.84a.42,.42 0 1 1 0-.84zM20.5,11.08a.42,.42 0 1 1 0,.84a.42,.42 0 1 1 0-.84zM21.5,11.08a.42,.42 0 1 1 0,.84a.42,.42 0 1 1 0-.84zM22.5,11.08a.42,.42 0 1 1 0,.84a.42,.42 0 1 1 0-.84zM25.5,11.08a.42,.42 0 1 1 0,.84a.42,.42 0 1 1 0-.84zM26.5,11.08a.42,.42 0 1 1 0,.84a.42,.42 0 1 1 0-.84zM27.5,11.08a.42,.42 0 1 1 0,.84a.42,.42 0 1 1 0-.84zM28.5,11.08a.42,.42 0 1 1 0,.84a.42,.42 0 1 1 0-.84zM30.5,11.08a.42,.42 0 1 1 0,.84a.42,.42 0 1 1 0-.84zM32.5,11.08a.42,.42 0 1 1 0,.84a.42,.42 0 1 1 0-.84zM0.5,12.08a.42,.42 0 1 1 0,.84a.42,.42 0 1 1 0-.84zM3.5,12.08a.42,.42 0 1 1 0,.84a.42,.42 0 1 1 0-.84zM5.5,12.08a.42,.42 0 1 1 0,.84a.42,.42 0 1 1 0-.84zM6.5,12.08a.42,.42 0 1 1 0,.84a.42,.42 0 1 1 0-.84zM7.5,12.08a.42,.42 0 1 1 0,.84a.42,.42 0 1 1 0-.84zM8.5,12.08a.42,.42 0 1 1 0,.84a.42,.42 0 1 1 0-.84zM10.5,12.08a.42,.42 0 1 1 0,.84a.42,.42 0 1 1 0-.84zM11.5,12.08a.42,.42 0 1 1 0,.84a.42,.42 0 1 1 0-.84zM12.5,12.08a.42,.42 0 1 1 0,.84a.42,.42 0 1 1 0-.84zM15.5,12.08a.42,.42 0 1 1 0,.84a.42,.42 0 1 1 0-.84zM16.5,12.08a.42,.42 0 1 1 0,.84a.42,.42 0 1 1 0-.84zM17.5,12.08a.42,.42 0 1 1 0,.84a.42,.42 0 1 1 0-.84zM19.5,12.08a.42,.42 0 1 1 0,.84a.42,.42 0 1 1 0-.84zM20.5,12.08a.42,.42 0 1 1 0,.84a.42,.42 0 1 1 0-.84zM21.5,12.08a.42,.42 0 1 1 0,.84a.42,.42 0 1 1 0-.84zM24.5,12.08a.42,.42 0 1 1 0,.84a.42,.42 0 1 1 0-.84zM26.5,12.08a.42,.42 0 1 1 0,.84a.42,.42 0 1 1 0-.84zM32.5,12.08a.42,.42 0 1 1 0,.84a.42,.42 0 1 1 0-.84zM0.5,13.08a.42,.42 0 1 1 0,.84a.42,.42 0 1 1 0-.84zM4.5,13.08a.42,.42 0 1 1 0,.84a.42,.42 0 1 1 0-.84zM8.5,13.08a.42,.42 0 1 1 0,.84a.42,.42 0 1 1 0-.84zM9.5,13.08a.42,.42 0 1 1 0,.84a.42,.42 0 1 1 0-.84zM14.5,13.08a.42,.42 0 1 1 0,.84a.42,.42 0 1 1 0-.84zM17.5,13.08a.42,.42 0 1 1 0,.84a.42,.42 0 1 1 0-.84zM21.5,13.08a.42,.42 0 1 1 0,.84a.42,.42 0 1 1 0-.84zM23.5,13.08a.42,.42 0 1 1 0,.84a.42,.42 0 1 1 0-.84zM31.5,13.08a.42,.42 0 1 1 0,.84a.42,.42 0 1 1 0-.84zM1.5,14.08a.42,.42 0 1 1 0,.84a.42,.42 0 1 1 0-.84zM2.5,14.08a.42,.42 0 1 1 0,.84a.42,.42 0 1 1 0-.84zM4.5,14.08a.42,.42 0 1 1 0,.84a.42,.42 0 1 1 0-.84zM5.5,14.08a.42,.42 0 1 1 0,.84a.42,.42 0 1 1 0-.84zM6.5,14.08a.42,.42 0 1 1 0,.84a.42,.42 0 1 1 0-.84zM9.5,14.08a.42,.42 0 1 1 0,.84a.42,.42 0 1 1 0-.84zM10.5,14.08a.42,.42 0 1 1 0,.84a.42,.42 0 1 1 0-.84zM12.5,14.08a.42,.42 0 1 1 0,.84a.42,.42 0 1 1 0-.84zM13.5,14.08a.42,.42 0 1 1 0,.84a.42,.42 0 1 1 0-.84zM14.5,14.08a.42,.42 0 1 1 0,.84a.42,.42 0 1 1 0-.84zM15.5,14.08a.42,.42 0 1 1 0,.84a.42,.42 0 1 1 0-.84zM20.5,14.08a.42,.42 0 1 1 0,.84a.42,.42 0 1 1 0-.84zM24.5,14.08a.42,.42 0 1 1 0,.84a.42,.42 0 1 1 0-.84zM26.5,14.08a.42,.42 0 1 1 0,.84a.42,.42 0 1 1 0-.84zM27.5,14.08a.42,.42 0 1 1 0,.84a.42,.42 0 1 1 0-.84zM28.5,14.08a.42,.42 0 1 1 0,.84a.42,.42 0 1 1 0-.84zM29.5,14.08a.42,.42 0 1 1 0,.84a.42,.42 0 1 1 0-.84zM30.5,14.08a.42,.42 0 1 1 0,.84a.42,.42 0 1 1 0-.84zM0.5,15.08a.42,.42 0 1 1 0,.84a.42,.42 0 1 1 0-.84zM1.5,15.08a.42,.42 0 1 1 0,.84a.42,.42 0 1 1 0-.84zM2.5,15.08a.42,.42 0 1 1 0,.84a.42,.42 0 1 1 0-.84zM3.5,15.08a.42,.42 0 1 1 0,.84a.42,.42 0 1 1 0-.84zM5.5,15.08a.42,.42 0 1 1 0,.84a.42,.42 0 1 1 0-.84zM7.5,15.08a.42,.42 0 1 1 0,.84a.42,.42 0 1 1 0-.84zM8.5,15.08a.42,.42 0 1 1 0,.84a.42,.42 0 1 1 0-.84zM9.5,15.08a.42,.42 0 1 1 0,.84a.42,.42 0 1 1 0-.84zM15.5,15.08a.42,.42 0 1 1 0,.84a.42,.42 0 1 1 0-.84zM19.5,15.08a.42,.42 0 1 1 0,.84a.42,.42 0 1 1 0-.84zM20.5,15.08a.42,.42 0 1 1 0,.84a.42,.42 0 1 1 0-.84zM24.5,15.08a.42,.42 0 1 1 0,.84a.42,.42 0 1 1 0-.84zM25.5,15.08a.42,.42 0 1 1 0,.84a.42,.42 0 1 1 0-.84zM30.5,15.08a.42,.42 0 1 1 0,.84a.42,.42 0 1 1 0-.84zM1.5,16.08a.42,.42 0 1 1 0,.84a.42,.42 0 1 1 0-.84zM3.5,16.08a.42,.42 0 1 1 0,.84a.42,.42 0 1 1 0-.84zM6.5,16.08a.42,.42 0 1 1 0,.84a.42,.42 0 1 1 0-.84zM10.5,16.08a.42,.42 0 1 1 0,.84a.42,.42 0 1 1 0-.84zM11.5,16.08a.42,.42 0 1 1 0,.84a.42,.42 0 1 1 0-.84zM12.5,16.08a.42,.42 0 1 1 0,.84a.42,.42 0 1 1 0-.84zM13.5,16.08a.42,.42 0 1 1 0,.84a.42,.42 0 1 1 0-.84zM14.5,16.08a.42,.42 0 1 1 0,.84a.42,.42 0 1 1 0-.84zM15.5,16.08a.42,.42 0 1 1 0,.84a.42,.42 0 1 1 0-.84zM16.5,16.08a.42,.42 0 1 1 0,.84a.42,.42 0 1 1 0-.84zM17.5,16.08a.42,.42 0 1 1 0,.84a.42,.42 0 1 1 0-.84zM18.5,16.08a.42,.42 0 1 1 0,.84a.42,.42 0 1 1 0-.84zM19.5,16.08a.42,.42 0 1 1 0,.84a.42,.42 0 1 1 0-.84zM23.5,16.08a.42,.42 0 1 1 0,.84a.42,.42 0 1 1 0-.84zM25.5,16.08a.42,.42 0 1 1 0,.84a.42,.42 0 1 1 0-.84zM26.5,16.08a.42,.42 0 1 1 0,.84a.42,.42 0 1 1 0-.84zM27.5,16.08a.42,.42 0 1 1 0,.84a.42,.42 0 1 1 0-.84zM28.5,16.08a.42,.42 0 1 1 0,.84a.42,.42 0 1 1 0-.84zM31.5,16.08a.42,.42 0 1 1 0,.84a.42,.42 0 1 1 0-.84zM2.5,17.08a.42,.42 0 1 1 0,.84a.42,.42 0 1 1 0-.84zM4.5,17.08a.42,.42 0 1 1 0,.84a.42,.42 0 1 1 0-.84zM5.5,17.08a.42,.42 0 1 1 0,.84a.42,.42 0 1 1 0-.84zM9.5,17.08a.42,.42 0 1 1 0,.84a.42,.42 0 1 1 0-.84zM12.5,17.08a.42,.42 0 1 1 0,.84a.42,.42 0 1 1 0-.84zM13.5,17.08a.42,.42 0 1 1 0,.84a.42,.42 0 1 1 0-.84zM16.5,17.08a.42,.42 0 1 1 0,.84a.42,.42 0 1 1 0-.84zM17.5,17.08a.42,.42 0 1 1 0,.84a.42,.42 0 1 1 0-.84zM18.5,17.08a.42,.42 0 1 1 0,.84a.42,.42 0 1 1 0-.84zM20.5,17.08a.42,.42 0 1 1 0,.84a.42,.42 0 1 1 0-.84zM21.5,17.08a.42,.42 0 1 1 0,.84a.42,.42 0 1 1 0-.84zM22.5,17.08a.42,.42 0 1 1 0,.84a.42,.42 0 1 1 0-.84zM24.5,17.08a.42,.42 0 1 1 0,.84a.42,.42 0 1 1 0-.84zM26.5,17.08a.42,.42 0 1 1 0,.84a.42,.42 0 1 1 0-.84zM28.5,17.08a.42,.42 0 1 1 0,.84a.42,.42 0 1 1 0-.84zM29.5,17.08a.42,.42 0 1 1 0,.84a.42,.42 0 1 1 0-.84zM31.5,17.08a.42,.42 0 1 1 0,.84a.42,.42 0 1 1 0-.84zM0.5,18.08a.42,.42 0 1 1 0,.84a.42,.42 0 1 1 0-.84zM1.5,18.08a.42,.42 0 1 1 0,.84a.42,.42 0 1 1 0-.84zM4.5,18.08a.42,.42 0 1 1 0,.84a.42,.42 0 1 1 0-.84zM5.5,18.08a.42,.42 0 1 1 0,.84a.42,.42 0 1 1 0-.84zM6.5,18.08a.42,.42 0 1 1 0,.84a.42,.42 0 1 1 0-.84zM8.5,18.08a.42,.42 0 1 1 0,.84a.42,.42 0 1 1 0-.84zM9.5,18.08a.42,.42 0 1 1 0,.84a.42,.42 0 1 1 0-.84zM12.5,18.08a.42,.42 0 1 1 0,.84a.42,.42 0 1 1 0-.84zM16.5,18.08a.42,.42 0 1 1 0,.84a.42,.42 0 1 1 0-.84zM18.5,18.08a.42,.42 0 1 1 0,.84a.42,.42 0 1 1 0-.84zM19.5,18.08a.42,.42 0 1 1 0,.84a.42,.42 0 1 1 0-.84zM20.5,18.08a.42,.42 0 1 1 0,.84a.42,.42 0 1 1 0-.84zM23.5,18.08a.42,.42 0 1 1 0,.84a.42,.42 0 1 1 0-.84zM25.5,18.08a.42,.42 0 1 1 0,.84a.42,.42 0 1 1 0-.84zM26.5,18.08a.42,.42 0 1 1 0,.84a.42,.42 0 1 1 0-.84zM28.5,18.08a.42,.42 0 1 1 0,.84a.42,.42 0 1 1 0-.84zM29.5,18.08a.42,.42 0 1 1 0,.84a.42,.42 0 1 1 0-.84zM30.5,18.08a.42,.42 0 1 1 0,.84a.42,.42 0 1 1 0-.84zM32.5,18.08a.42,.42 0 1 1 0,.84a.42,.42 0 1 1 0-.84zM2.5,19.08a.42,.42 0 1 1 0,.84a.42,.42 0 1 1 0-.84zM3.5,19.08a.42,.42 0 1 1 0,.84a.42,.42 0 1 1 0-.84zM5.5,19.08a.42,.42 0 1 1 0,.84a.42,.42 0 1 1 0-.84zM7.5,19.08a.42,.42 0 1 1 0,.84a.42,.42 0 1 1 0-.84zM8.5,19.08a.42,.42 0 1 1 0,.84a.42,.42 0 1 1 0-.84zM9.5,19.08a.42,.42 0 1 1 0,.84a.42,.42 0 1 1 0-.84zM11.5,19.08a.42,.42 0 1 1 0,.84a.42,.42 0 1 1 0-.84zM12.5,19.08a.42,.42 0 1 1 0,.84a.42,.42 0 1 1 0-.84zM13.5,19.08a.42,.42 0 1 1 0,.84a.42,.42 0 1 1 0-.84zM14.5,19.08a.42,.42 0 1 1 0,.84a.42,.42 0 1 1 0-.84zM17.5,19.08a.42,.42 0 1 1 0,.84a.42,.42 0 1 1 0-.84zM18.5,19.08a.42,.42 0 1 1 0,.84a.42,.42 0 1 1 0-.84zM20.5,19.08a.42,.42 0 1 1 0,.84a.42,.42 0 1 1 0-.84zM23.5,19.08a.42,.42 0 1 1 0,.84a.42,.42 0 1 1 0-.84zM24.5,19.08a.42,.42 0 1 1 0,.84a.42,.42 0 1 1 0-.84zM25.5,19.08a.42,.42 0 1 1 0,.84a.42,.42 0 1 1 0-.84zM27.5,19.08a.42,.42 0 1 1 0,.84a.42,.42 0 1 1 0-.84zM29.5,19.08a.42,.42 0 1 1 0,.84a.42,.42 0 1 1 0-.84zM30.5,19.08a.42,.42 0 1 1 0,.84a.42,.42 0 1 1 0-.84zM31.5,19.08a.42,.42 0 1 1 0,.84a.42,.42 0 1 1 0-.84zM32.5,19.08a.42,.42 0 1 1 0,.84a.42,.42 0 1 1 0-.84zM1.5,20.08a.42,.42 0 1 1 0,.84a.42,.42 0 1 1 0-.84zM2.5,20.08a.42,.42 0 1 1 0,.84a.42,.42 0 1 1 0-.84zM3.5,20.08a.42,.42 0 1 1 0,.84a.42,.42 0 1 1 0-.84zM4.5,20.08a.42,.42 0 1 1 0,.84a.42,.42 0 1 1 0-.84zM5.5,20.08a.42,.42 0 1 1 0,.84a.42,.42 0 1 1 0-.84zM6.5,20.08a.42,.42 0 1 1 0,.84a.42,.42 0 1 1 0-.84zM8.5,20.08a.42,.42 0 1 1 0,.84a.42,.42 0 1 1 0-.84zM9.5,20.08a.42,.42 0 1 1 0,.84a.42,.42 0 1 1 0-.84zM11.5,20.08a.42,.42 0 1 1 0,.84a.42,.42 0 1 1 0-.84zM13.5,20.08a.42,.42 0 1 1 0,.84a.42,.42 0 1 1 0-.84zM14.5,20.08a.42,.42 0 1 1 0,.84a.42,.42 0 1 1 0-.84zM19.5,20.08a.42,.42 0 1 1 0,.84a.42,.42 0 1 1 0-.84zM24.5,20.08a.42,.42 0 1 1 0,.84a.42,.42 0 1 1 0-.84zM25.5,20.08a.42,.42 0 1 1 0,.84a.42,.42 0 1 1 0-.84zM27.5,20.08a.42,.42 0 1 1 0,.84a.42,.42 0 1 1 0-.84zM29.5,20.08a.42,.42 0 1 1 0,.84a.42,.42 0 1 1 0-.84zM0.5,21.08a.42,.42 0 1 1 0,.84a.42,.42 0 1 1 0-.84zM1.5,21.08a.42,.42 0 1 1 0,.84a.42,.42 0 1 1 0-.84zM5.5,21.08a.42,.42 0 1 1 0,.84a.42,.42 0 1 1 0-.84zM13.5,21.08a.42,.42 0 1 1 0,.84a.42,.42 0 1 1 0-.84zM15.5,21.08a.42,.42 0 1 1 0,.84a.42,.42 0 1 1 0-.84zM16.5,21.08a.42,.42 0 1 1 0,.84a.42,.42 0 1 1 0-.84zM18.5,21.08a.42,.42 0 1 1 0,.84a.42,.42 0 1 1 0-.84zM21.5,21.08a.42,.42 0 1 1 0,.84a.42,.42 0 1 1 0-.84zM26.5,21.08a.42,.42 0 1 1 0,.84a.42,.42 0 1 1 0-.84zM27.5,21.08a.42,.42 0 1 1 0,.84a.42,.42 0 1 1 0-.84zM28.5,21.08a.42,.42 0 1 1 0,.84a.42,.42 0 1 1 0-.84zM30.5,21.08a.42,.42 0 1 1 0,.84a.42,.42 0 1 1 0-.84zM0.5,22.08a.42,.42 0 1 1 0,.84a.42,.42 0 1 1 0-.84zM2.5,22.08a.42,.42 0 1 1 0,.84a.42,.42 0 1 1 0-.84zM4.5,22.08a.42,.42 0 1 1 0,.84a.42,.42 0 1 1 0-.84zM6.5,22.08a.42,.42 0 1 1 0,.84a.42,.42 0 1 1 0-.84zM9.5,22.08a.42,.42 0 1 1 0,.84a.42,.42 0 1 1 0-.84zM10.5,22.08a.42,.42 0 1 1 0,.84a.42,.42 0 1 1 0-.84zM11.5,22.08a.42,.42 0 1 1 0,.84a.42,.42 0 1 1 0-.84zM12.5,22.08a.42,.42 0 1 1 0,.84a.42,.42 0 1 1 0-.84zM15.5,22.08a.42,.42 0 1 1 0,.84a.42,.42 0 1 1 0-.84zM16.5,22.08a.42,.42 0 1 1 0,.84a.42,.42 0 1 1 0-.84zM18.5,22.08a.42,.42 0 1 1 0,.84a.42,.42 0 1 1 0-.84zM19.5,22.08a.42,.42 0 1 1 0,.84a.42,.42 0 1 1 0-.84zM21.5,22.08a.42,.42 0 1 1 0,.84a.42,.42 0 1 1 0-.84zM24.5,22.08a.42,.42 0 1 1 0,.84a.42,.42 0 1 1 0-.84zM26.5,22.08a.42,.42 0 1 1 0,.84a.42,.42 0 1 1 0-.84zM32.5,22.08a.42,.42 0 1 1 0,.84a.42,.42 0 1 1 0-.84zM0.5,23.08a.42,.42 0 1 1 0,.84a.42,.42 0 1 1 0-.84zM4.5,23.08a.42,.42 0 1 1 0,.84a.42,.42 0 1 1 0-.84zM5.5,23.08a.42,.42 0 1 1 0,.84a.42,.42 0 1 1 0-.84zM7.5,23.08a.42,.42 0 1 1 0,.84a.42,.42 0 1 1 0-.84zM11.5,23.08a.42,.42 0 1 1 0,.84a.42,.42 0 1 1 0-.84zM12.5,23.08a.42,.42 0 1 1 0,.84a.42,.42 0 1 1 0-.84zM13.5,23.08a.42,.42 0 1 1 0,.84a.42,.42 0 1 1 0-.84zM15.5,23.08a.42,.42 0 1 1 0,.84a.42,.42 0 1 1 0-.84zM16.5,23.08a.42,.42 0 1 1 0,.84a.42,.42 0 1 1 0-.84zM17.5,23.08a.42,.42 0 1 1 0,.84a.42,.42 0 1 1 0-.84zM18.5,23.08a.42,.42 0 1 1 0,.84a.42,.42 0 1 1 0-.84zM19.5,23.08a.42,.42 0 1 1 0,.84a.42,.42 0 1 1 0-.84zM27.5,23.08a.42,.42 0 1 1 0,.84a.42,.42 0 1 1 0-.84zM28.5,23.08a.42,.42 0 1 1 0,.84a.42,.42 0 1 1 0-.84zM30.5,23.08a.42,.42 0 1 1 0,.84a.42,.42 0 1 1 0-.84zM31.5,23.08a.42,.42 0 1 1 0,.84a.42,.42 0 1 1 0-.84zM0.5,24.08a.42,.42 0 1 1 0,.84a.42,.42 0 1 1 0-.84zM1.5,24.08a.42,.42 0 1 1 0,.84a.42,.42 0 1 1 0-.84zM2.5,24.08a.42,.42 0 1 1 0,.84a.42,.42 0 1 1 0-.84zM4.5,24.08a.42,.42 0 1 1 0,.84a.42,.42 0 1 1 0-.84zM6.5,24.08a.42,.42 0 1 1 0,.84a.42,.42 0 1 1 0-.84zM7.5,24.08a.42,.42 0 1 1 0,.84a.42,.42 0 1 1 0-.84zM10.5,24.08a.42,.42 0 1 1 0,.84a.42,.42 0 1 1 0-.84zM11.5,24.08a.42,.42 0 1 1 0,.84a.42,.42 0 1 1 0-.84zM12.5,24.08a.42,.42 0 1 1 0,.84a.42,.42 0 1 1 0-.84zM15.5,24.08a.42,.42 0 1 1 0,.84a.42,.42 0 1 1 0-.84zM16.5,24.08a.42,.42 0 1 1 0,.84a.42,.42 0 1 1 0-.84zM18.5,24.08a.42,.42 0 1 1 0,.84a.42,.42 0 1 1 0-.84zM21.5,24.08a.42,.42 0 1 1 0,.84a.42,.42 0 1 1 0-.84zM24.5,24.08a.42,.42 0 1 1 0,.84a.42,.42 0 1 1 0-.84zM25.5,24.08a.42,.42 0 1 1 0,.84a.42,.42 0 1 1 0-.84zM26.5,24.08a.42,.42 0 1 1 0,.84a.42,.42 0 1 1 0-.84zM27.5,24.08a.42,.42 0 1 1 0,.84a.42,.42 0 1 1 0-.84zM28.5,24.08a.42,.42 0 1 1 0,.84a.42,.42 0 1 1 0-.84zM29.5,24.08a.42,.42 0 1 1 0,.84a.42,.42 0 1 1 0-.84zM31.5,24.08a.42,.42 0 1 1 0,.84a.42,.42 0 1 1 0-.84zM8.5,25.08a.42,.42 0 1 1 0,.84a.42,.42 0 1 1 0-.84zM9.5,25.08a.42,.42 0 1 1 0,.84a.42,.42 0 1 1 0-.84zM10.5,25.08a.42,.42 0 1 1 0,.84a.42,.42 0 1 1 0-.84zM11.5,25.08a.42,.42 0 1 1 0,.84a.42,.42 0 1 1 0-.84zM14.5,25.08a.42,.42 0 1 1 0,.84a.42,.42 0 1 1 0-.84zM16.5,25.08a.42,.42 0 1 1 0,.84a.42,.42 0 1 1 0-.84zM17.5,25.08a.42,.42 0 1 1 0,.84a.42,.42 0 1 1 0-.84zM20.5,25.08a.42,.42 0 1 1 0,.84a.42,.42 0 1 1 0-.84zM22.5,25.08a.42,.42 0 1 1 0,.84a.42,.42 0 1 1 0-.84zM24.5,25.08a.42,.42 0 1 1 0,.84a.42,.42 0 1 1 0-.84zM28.5,25.08a.42,.42 0 1 1 0,.84a.42,.42 0 1 1 0-.84zM30.5,25.08a.42,.42 0 1 1 0,.84a.42,.42 0 1 1 0-.84zM8.5,26.08a.42,.42 0 1 1 0,.84a.42,.42 0 1 1 0-.84zM9.5,26.08a.42,.42 0 1 1 0,.84a.42,.42 0 1 1 0-.84zM10.5,26.08a.42,.42 0 1 1 0,.84a.42,.42 0 1 1 0-.84zM11.5,26.08a.42,.42 0 1 1 0,.84a.42,.42 0 1 1 0-.84zM12.5,26.08a.42,.42 0 1 1 0,.84a.42,.42 0 1 1 0-.84zM14.5,26.08a.42,.42 0 1 1 0,.84a.42,.42 0 1 1 0-.84zM15.5,26.08a.42,.42 0 1 1 0,.84a.42,.42 0 1 1 0-.84zM16.5,26.08a.42,.42 0 1 1 0,.84a.42,.42 0 1 1 0-.84zM18.5,26.08a.42,.42 0 1 1 0,.84a.42,.42 0 1 1 0-.84zM20.5,26.08a.42,.42 0 1 1 0,.84a.42,.42 0 1 1 0-.84zM21.5,26.08a.42,.42 0 1 1 0,.84a.42,.42 0 1 1 0-.84zM22.5,26.08a.42,.42 0 1 1 0,.84a.42,.42 0 1 1 0-.84zM23.5,26.08a.42,.42 0 1 1 0,.84a.42,.42 0 1 1 0-.84zM24.5,26.08a.42,.42 0 1 1 0,.84a.42,.42 0 1 1 0-.84zM26.5,26.08a.42,.42 0 1 1 0,.84a.42,.42 0 1 1 0-.84zM28.5,26.08a.42,.42 0 1 1 0,.84a.42,.42 0 1 1 0-.84zM11.5,27.08a.42,.42 0 1 1 0,.84a.42,.42 0 1 1 0-.84zM12.5,27.08a.42,.42 0 1 1 0,.84a.42,.42 0 1 1 0-.84zM15.5,27.08a.42,.42 0 1 1 0,.84a.42,.42 0 1 1 0-.84zM17.5,27.08a.42,.42 0 1 1 0,.84a.42,.42 0 1 1 0-.84zM18.5,27.08a.42,.42 0 1 1 0,.84a.42,.42 0 1 1 0-.84zM19.5,27.08a.42,.42 0 1 1 0,.84a.42,.42 0 1 1 0-.84zM24.5,27.08a.42,.42 0 1 1 0,.84a.42,.42 0 1 1 0-.84zM28.5,27.08a.42,.42 0 1 1 0,.84a.42,.42 0 1 1 0-.84zM29.5,27.08a.42,.42 0 1 1 0,.84a.42,.42 0 1 1 0-.84zM30.5,27.08a.42,.42 0 1 1 0,.84a.42,.42 0 1 1 0-.84zM31.5,27.08a.42,.42 0 1 1 0,.84a.42,.42 0 1 1 0-.84zM8.5,28.08a.42,.42 0 1 1 0,.84a.42,.42 0 1 1 0-.84zM9.5,28.08a.42,.42 0 1 1 0,.84a.42,.42 0 1 1 0-.84zM10.5,28.08a.42,.42 0 1 1 0,.84a.42,.42 0 1 1 0-.84zM11.5,28.08a.42,.42 0 1 1 0,.84a.42,.42 0 1 1 0-.84zM14.5,28.08a.42,.42 0 1 1 0,.84a.42,.42 0 1 1 0-.84zM16.5,28.08a.42,.42 0 1 1 0,.84a.42,.42 0 1 1 0-.84zM17.5,28.08a.42,.42 0 1 1 0,.84a.42,.42 0 1 1 0-.84zM19.5,28.08a.42,.42 0 1 1 0,.84a.42,.42 0 1 1 0-.84zM21.5,28.08a.42,.42 0 1 1 0,.84a.42,.42 0 1 1 0-.84zM23.5,28.08a.42,.42 0 1 1 0,.84a.42,.42 0 1 1 0-.84zM24.5,28.08a.42,.42 0 1 1 0,.84a.42,.42 0 1 1 0-.84zM25.5,28.08a.42,.42 0 1 1 0,.84a.42,.42 0 1 1 0-.84zM26.5,28.08a.42,.42 0 1 1 0,.84a.42,.42 0 1 1 0-.84zM27.5,28.08a.42,.42 0 1 1 0,.84a.42,.42 0 1 1 0-.84zM28.5,28.08a.42,.42 0 1 1 0,.84a.42,.42 0 1 1 0-.84zM31.5,28.08a.42,.42 0 1 1 0,.84a.42,.42 0 1 1 0-.84zM8.5,29.08a.42,.42 0 1 1 0,.84a.42,.42 0 1 1 0-.84zM10.5,29.08a.42,.42 0 1 1 0,.84a.42,.42 0 1 1 0-.84zM13.5,29.08a.42,.42 0 1 1 0,.84a.42,.42 0 1 1 0-.84zM14.5,29.08a.42,.42 0 1 1 0,.84a.42,.42 0 1 1 0-.84zM16.5,29.08a.42,.42 0 1 1 0,.84a.42,.42 0 1 1 0-.84zM18.5,29.08a.42,.42 0 1 1 0,.84a.42,.42 0 1 1 0-.84zM19.5,29.08a.42,.42 0 1 1 0,.84a.42,.42 0 1 1 0-.84zM20.5,29.08a.42,.42 0 1 1 0,.84a.42,.42 0 1 1 0-.84zM21.5,29.08a.42,.42 0 1 1 0,.84a.42,.42 0 1 1 0-.84zM25.5,29.08a.42,.42 0 1 1 0,.84a.42,.42 0 1 1 0-.84zM27.5,29.08a.42,.42 0 1 1 0,.84a.42,.42 0 1 1 0-.84zM30.5,29.08a.42,.42 0 1 1 0,.84a.42,.42 0 1 1 0-.84zM31.5,29.08a.42,.42 0 1 1 0,.84a.42,.42 0 1 1 0-.84zM12.5,30.08a.42,.42 0 1 1 0,.84a.42,.42 0 1 1 0-.84zM15.5,30.08a.42,.42 0 1 1 0,.84a.42,.42 0 1 1 0-.84zM16.5,30.08a.42,.42 0 1 1 0,.84a.42,.42 0 1 1 0-.84zM19.5,30.08a.42,.42 0 1 1 0,.84a.42,.42 0 1 1 0-.84zM21.5,30.08a.42,.42 0 1 1 0,.84a.42,.42 0 1 1 0-.84zM22.5,30.08a.42,.42 0 1 1 0,.84a.42,.42 0 1 1 0-.84zM23.5,30.08a.42,.42 0 1 1 0,.84a.42,.42 0 1 1 0-.84zM24.5,30.08a.42,.42 0 1 1 0,.84a.42,.42 0 1 1 0-.84zM28.5,30.08a.42,.42 0 1 1 0,.84a.42,.42 0 1 1 0-.84zM29.5,30.08a.42,.42 0 1 1 0,.84a.42,.42 0 1 1 0-.84zM30.5,30.08a.42,.42 0 1 1 0,.84a.42,.42 0 1 1 0-.84zM31.5,30.08a.42,.42 0 1 1 0,.84a.42,.42 0 1 1 0-.84zM32.5,30.08a.42,.42 0 1 1 0,.84a.42,.42 0 1 1 0-.84zM9.5,31.08a.42,.42 0 1 1 0,.84a.42,.42 0 1 1 0-.84zM10.5,31.08a.42,.42 0 1 1 0,.84a.42,.42 0 1 1 0-.84zM13.5,31.08a.42,.42 0 1 1 0,.84a.42,.42 0 1 1 0-.84zM14.5,31.08a.42,.42 0 1 1 0,.84a.42,.42 0 1 1 0-.84zM17.5,31.08a.42,.42 0 1 1 0,.84a.42,.42 0 1 1 0-.84zM19.5,31.08a.42,.42 0 1 1 0,.84a.42,.42 0 1 1 0-.84zM23.5,31.08a.42,.42 0 1 1 0,.84a.42,.42 0 1 1 0-.84zM26.5,31.08a.42,.42 0 1 1 0,.84a.42,.42 0 1 1 0-.84zM30.5,31.08a.42,.42 0 1 1 0,.84a.42,.42 0 1 1 0-.84zM31.5,31.08a.42,.42 0 1 1 0,.84a.42,.42 0 1 1 0-.84zM32.5,31.08a.42,.42 0 1 1 0,.84a.42,.42 0 1 1 0-.84zM10.5,32.08a.42,.42 0 1 1 0,.84a.42,.42 0 1 1 0-.84zM11.5,32.08a.42,.42 0 1 1 0,.84a.42,.42 0 1 1 0-.84zM12.5,32.08a.42,.42 0 1 1 0,.84a.42,.42 0 1 1 0-.84zM17.5,32.08a.42,.42 0 1 1 0,.84a.42,.42 0 1 1 0-.84zM21.5,32.08a.42,.42 0 1 1 0,.84a.42,.42 0 1 1 0-.84zM22.5,32.08a.42,.42 0 1 1 0,.84a.42,.42 0 1 1 0-.84zM23.5,32.08a.42,.42 0 1 1 0,.84a.42,.42 0 1 1 0-.84zM24.5,32.08a.42,.42 0 1 1 0,.84a.42,.42 0 1 1 0-.84zM28.5,32.08a.42,.42 0 1 1 0,.84a.42,.42 0 1 1 0-.84zM29.5,32.08a.42,.42 0 1 1 0,.84a.42,.42 0 1 1 0-.84z"/><rect x="0.5" y="0.5" width="6" height="6" rx="1.7" fill="none" stroke="#1B1B1B" stroke-width="1"/><rect x="2" y="2" width="3" height="3" rx=".9" fill="#1B1B1B"/><rect x="2.6" y="2.6" width="1.8" height="1.8" rx=".5" fill="#DD443C"/><rect x="26.5" y="0.5" width="6" height="6" rx="1.7" fill="none" stroke="#1B1B1B" stroke-width="1"/><rect x="28" y="2" width="3" height="3" rx=".9" fill="#1B1B1B"/><rect x="28.6" y="2.6" width="1.8" height="1.8" rx=".5" fill="#DD443C"/><rect x="0.5" y="26.5" width="6" height="6" rx="1.7" fill="none" stroke="#1B1B1B" stroke-width="1"/><rect x="2" y="28" width="3" height="3" rx=".9" fill="#1B1B1B"/><rect x="2.6" y="28.6" width="1.8" height="1.8" rx=".5" fill="#DD443C"/></svg>
