<!-- Brand hover color: #E4405F. Monochrome glyph; set with CSS color. -->
<svg xmlns="http://www.w3.org/2000/svg" viewBox="0 0 32 32" role="img" aria-label="Instagram">
  <path fill="currentColor" fill-rule="evenodd" d="M10.1 3h11.8A7.1 7.1 0 0 1 29 10.1v11.8a7.1 7.1 0 0 1-7.1 7.1H10.1A7.1 7.1 0 0 1 3 21.9V10.1A7.1 7.1 0 0 1 10.1 3Zm0 2.6a4.5 4.5 0 0 0-4.5 4.5v11.8a4.5 4.5 0 0 0 4.5 4.5h11.8a4.5 4.5 0 0 0 4.5-4.5V10.1a4.5 4.5 0 0 0-4.5-4.5H10.1ZM16 9.3a6.7 6.7 0 1 1 0 13.4 6.7 6.7 0 0 1 0-13.4Zm0 2.6a4.1 4.1 0 1 0 0 8.2 4.1 4.1 0 0 0 0-8.2Zm7-4.2a1.6 1.6 0 1 1 0 3.2 1.6 1.6 0 0 1 0-3.2Z"/>
</svg>
